<?xml version="1.0" encoding="UTF-8"?><svg xmlns="http://www.w3.org/2000/svg" width="866" height="500" xmlns:xlink="http://www.w3.org/1999/xlink" viewBox="0 0 866 500"><defs><style>.h{fill:url(#f);}.i{fill:url(#b);}.j{fill:#010b2d;}.k{fill:#003d66;}.l{fill:#698b94;}.m,.n{fill:#fff;}.o{fill:#eff792;}.p{fill:#cbeef5;}.q{fill:#dedfe4;}.r{fill:#376570;}.s{fill:#1a2342;}.t{fill:#39415b;}.u,.v{fill:#2eeef3;}.w{fill:#27304c;}.x{fill:#525970;}.y{fill:#abbec3;}.y,.a`,.aa{mix-blend-mode:soft-light;}.y,.n,.ab{opacity:.7;}.ac{opacity:.48;}.ad{opacity:.75;}.ae{isolation:isolate;}.af{fill:url(#e);opacity:.3;}.n,.ag,.v{mix-blend-mode:overlay;}.ag{fill:#f5fabf;opacity:.9;}.ah{fill:url(#d);mix-blend-mode:hard-light;opacity:.74;}.v{opacity:.45;}.ab{fill:#13b3d1;}.aa{opacity:.4;}</style><linearGradient id="b" x1="433" y1="3" x2="433" y2="621.63" gradientTransform="matrix(1, 0, 0, 1, 0, 0)" gradientUnits="userSpaceOnUse"><stop offset="0" stop-color="#003d66"/><stop offset=".13" stop-color="#044c72"/><stop offset=".38" stop-color="#0e7592"/><stop offset=".73" stop-color="#1fb5c6"/><stop offset="1" stop-color="#2eeef3"/></linearGradient><linearGradient id="d" x1="383.56" y1="163.53" x2="482.06" y2="403.53" gradientTransform="matrix(1, 0, 0, 1, 0, 0)" gradientUnits="userSpaceOnUse"><stop offset="0" stop-color="#fff"/><stop offset="1" stop-color="#eff792" stop-opacity="0"/></linearGradient><linearGradient id="e" x1="398.41" y1="191.79" x2="507.69" y2="466.91" gradientTransform="matrix(1, 0, 0, 1, 0, 0)" gradientUnits="userSpaceOnUse"><stop offset="0" stop-color="#eff792"/><stop offset="1" stop-color="#eff792" stop-opacity="0"/></linearGradient><linearGradient id="f" x1="340.21" y1="90.62" x2="398.24" y2="153.21" gradientTransform="translate(1.44 -4.1) rotate(.61)" gradientUnits="userSpaceOnUse"><stop offset="0" stop-color="#8ef6f9"/><stop offset="1" stop-color="#2eeef3" stop-opacity=".3"/></linearGradient></defs><g class="ae"><g id="a"><rect class="i" width="866" height="500"/><path class="k" d="M866,279.27c-14.54,4.1-21.96,2.04-45.61-8.94-9.2-4.27-27.79-16.81-37.29-21.24-2.57-1.2-5.8-2.18-9.25-2.09-3.56,.1-6.59,1.31-9.37,2.46-20.77,8.64-40.77,17.93-62.31,25.92-37.66,3.28-90.77-8.72-101.16-8.72-12.66,1.66-59.74,25.58-75.05,25.67-8.03,.04-108.55-22.44-121.64-26.31-4.15-1.23-8.8-2.5-13.47-1.99-4.41,.48-7.58,2.42-10.49,4.21-18.98,11.68-59.35,29.75-78.98,35.41-4.48-.36-59.22-23.46-63.56-23.63-9.78-.39-44.42,17.51-51.62,20.96-12.43,5.96-75.95-35.51-84-35-4.5,.29-61.74,12.4-102.19,22.35v211.65H866v-220.73Z"/><g class="ad"><path class="s" d="M716.7,377.51c-3.19-4.45-12.23,18.28-16.7,18.81,17.37-6.44,10.73-55.08-7.27-45.53,2.45-10.33,6.01-27.53-3.72-36.06-14.43-12.65-15.88,16.58-15.61,24.76-5.33-7.38-14.31-12.28-21.01-3.81-5.54,7.01-1.31,12.35-1.12,19.8-7.99-7.86-14.35,.77-16.85,9.45-3.17-.9-6.3,.43-10.35,.65-.24-7.4-.16-15.48-8.71-18.53-6.32-2.25-14.59,2.63-19.81,5.25,4.01-7.76,2.48-26.31-5.72-31.33-10.86-6.64-18.03,13.09-19.84,20.36-2.39-8.73-9.39-21.96-20.15-19.51-10.98,2.5-16.77,16.53-16.47,26.71-3.11-7.76-15.06-7.13-21.36-4.35-3.41,1.51-6.13,3.81-8.16,6.62-.61-.92-1.32-1.76-2.18-2.46-7.15-5.89-15.14-2.23-22.22,.59-.03-7.91,3.35-18.11-6.8-21.12-9.38-2.78-17.24,5.13-21.35,12.33,.23-13.92-16.15-12.5-21.3-2.7-1.85-5.3-4.16-14.38-11.34-15.13-6.34-.66-11.05,6.7-12.15,11.98-2.4-7.6-3.08-18.6-11.04-23.98-6.5-4.4-18.23-5.04-25.17-1.32-16.93,9.06-17.01,34.56-6.54,47.96-3.98-5.09-13.57-4-19.35-.86-.36-.84-.76-1.69-1.23-2.56-5.35-9.88-18.23-9.6-26.42-3.53-.32-6.77,.89-17.44-7.42-20.2-7.93-2.64-14.56,4.5-19.25,9.68,.95-17.96-13.38-18.95-23.97-7.81-.56-16.18-12.31-40.24-32.32-30.51-17.95,8.72-9.94,31.07-5.04,44.18-9.52-11.06-19.3,.84-18.7,11.48-7.16-7.28-21.98-14.38-29.45-4.13-7.62,10.46-.85,25.11,7.85,31.74-8.04-2.42-20-.72-22.03,9.2-1.91,9.34,10.42,15.7,17.55,18.72l138-18.67c5.48-2.75,60.49-.14,74.17-1.35,15.85-1.4,32.47-1.9,48.46-1.17,14.94,.69,149.37,9.18,207.52,27.39,10.93,3.42,22.77,1.77,34.08,2.92,9.15,.93,18.4,1.47,24.43-6.47,3.01-3.96,9.38-32.81,6.03-37.49Z"/></g><g class="aa"><path class="p" d="M885.67,61.87c-37.61,0-74.77-3.24-112.65-3.33-6.21-.01-19.6,1.56-10.86,10.03,5.1,4.94,14.82,5.78,20.05,11.14,13.36,13.71-28.58,8.21-33.87,8.16-17.97-.17-36.28-1.97-53.34,2.15-4.16,1-17.78,1.8-15.23,9.19,1.95,5.64,21.79,5.13,26.42,5.33,9.9,.44,19.74-.67,29.48,1.17,4.46,.84,8.26,1.65,12,4.31,4.78,3.41,3.82,5.25,5.3,10.02,6.03,19.45,32.33,5.39,39.38-6.7,4.85-8.31,3.15-12.96,14.1-14.77,11.28-1.86,22.94-2.03,34.4-2.03,10.37,0,20.73,.22,30.98,.66,7.49,.33,17.26,1.81,24.44,.58,1.18-9.06-6.61-24.72-8.6-33.91"/></g><g class="aa"><path class="p" d="M869.33,153.35c-6.53,2.47-14.09,.44-20.82,.1-7.81-.39-15.67,.14-23.37,1.57-5.46,1.02-18.52,5.87-10.08,11.95,2.22,1.6,13.08,5.52,9.64,9.59-1.85,2.19-14.81,2.13-17.98,2.45-4.89,.5-9.85,.33-14.79,.33-7.35,0-23.68-1.79-29.8,2.78-6.59,4.93,6.55,5.84,9.55,5.98,12.96,.62,25.9,1.63,38.81,3.02,12.74,1.37,25.5,3.04,38-.8,1.94-.6,3.98-1.4,5.12-3.08,4.13-6.08-7.77-14.37-1.95-18.98,.94-.74,2.16-1.03,3.34-1.23,8.71-1.53,17.01,1.07,25.68,.97"/></g><g class="aa"><path class="p" d="M666.22,168.43c-10.99,.35-21.79-1.82-32.67-2.91-11.24-1.13-22.2-.54-33.43,.26-1.47,.1-3.21,.38-3.86,1.7-.65,1.3,.15,2.89-.15,4.31-.46,2.22-3.19,3.02-5.44,3.22-11.67,1.04-24.25-2.42-34.67,2.95-1.72,.89-3.54,2.86-2.48,4.48,.69,1.05,2.16,1.14,3.41,1.13,19.82-.24,39.64-.96,59.42-2.17,1.38-.08,2.96-.29,3.7-1.45,.69-1.09,.32-2.55,.75-3.76,.92-2.55,4.46-2.58,7.14-2.2,17.08,2.39,34.51,1.81,51.55-.9,1.59-.25,3.35-.62,4.3-1.93,3.95-5.43-8.86-4.35-10.58-4.17-4.12,.43-8.17,1.45-12.34,1.45"/></g><g class="aa"><path class="p" d="M-5.67,23.39c10.3,2.57,21.32-.01,31.78,.02,20.06,.06,40.12,.17,60.18,.31,5.49,.04,29.45-3.05,27.33,7.55-.26,1.32-1.31,2.32-2.36,3.16-1.59,1.28-3.32,2.39-5.14,3.31-1.57,.8-3.22,1.46-4.63,2.52-1.41,1.06-2.58,2.6-2.67,4.36-.28,5.41,10.51,6.34,14.22,6.57,24.01,1.46,47.44-4.08,71.33-4.64,4.42-.1,8.85,.06,13.24,.69,2.94,.42,16.92,2.11,10.58,7.72-1.19,1.05-2.73,1.61-4.05,2.48-1.88,1.23-3.38,3.66-1.57,5.6,1.23,1.32,3.17,1.64,4.97,1.77,4.88,.37,9.79-.08,14.69,0,2.65,.04,17.79,.88,15.35,6.41-.38,.86-1.2,1.43-2.03,1.87-4.4,2.33-9.82,2.51-14.66,3.19-37.16,5.2-74.94-1.08-112.11,4.5-4.2,.63-8.75,3.41-11.95,6.12-2.41,2.05-4.97,4.6-8.12,4.37-2.09-.16-3.94-1.62-4.95-3.46-2.82-5.12,1.3-11.99-6.32-13.4-3.93-.73-7.95-.17-11.92-.21-7.98-.09-15.94,.46-23.88,1.17-15.69,1.39-31.42,3.44-47.21,2.6-.28-5.17,2.77-10.47,3.23-15.73,.44-5.01-.22-10.14,0-15.16,.23-5.44,3.85-21.39-2.66-24.33"/></g><path class="j" d="M213.82,373.98c3.58-.3,6.83-1.44,9.47-3.63-1.07,3.91-3.25,7.78-5.02,11.2-2.69,5.19-5.79,10.13-9.06,14.97,8.41,1.35,17.35,1.06,25.72,.28,5.02-.47,10.03-1.39,14.85-2.9,2.09-.65,3.79-1.58,5.42-2.59-.83-1.14-1.81-2.01-2.91-3.05-2.61-2.45-4.53-5.33-6.49-8.3-1.7-2.58-3.35-5.2-4.99-7.82-1.08-1.73-2.64-3.65-3.28-5.69,3.85,1.1,8.02,3.09,11.81,1.61,1.04-.41,1.12-1.69,.21-2.28-4.12-2.69-6.99-6.19-9.82-10.17-1.51-2.12-4.45-5.42-4.87-8.39,3.48,1.79,7.35,2.2,11.29,1.75,.69-.08,1.38-.93,.83-1.59-3.76-4.54-7.53-9.36-10.62-14.53-3.55-5.23-5.61-10.26-7.12-16.09-.02,0-.05,.01-.07,.02-.25,5.17-1.74,10.62-2.86,15.06-1.81,7.16-5.22,13.5-9.04,19.75,.08,.29,.28,.53,.6,.58,3.1,.4,5.63-1.6,7.78-3.76-.6,3.85-3.04,7.86-4.71,11.02-2.4,4.53-5.13,8.87-8,13.12-.41,.61,.21,1.49,.9,1.43Z"/><path class="j" d="M251.78,384.94c2.86-.72,5.16-2.33,7.57-3.82-1.04,2.96-2.42,5.76-4.2,8.39-1.33,1.97-3.06,3.63-4.57,5.42,3.55,.18,7.11,.39,10.64,.24,5.41-.22,10.81-1.5,16.06-2.76,7.01-1.69,13.45-4.08,19.83-6.99-2.98-2.56-6.54-4.45-9.48-7.07-2.02-1.8-6.02-5.03-8.3-8.14,4.68,3.24,8.85,6.87,14.77,8.02,1.03,.2,2.1-.88,1.45-1.89-2.44-3.81-6.15-6.27-9.11-9.61-1.8-2.03-3.12-4.41-4.54-6.7-.62-1-1.8-2.39-2.51-3.76,3.06,2.3,5.68,5.16,9.92,4.77,.91-.08,1.62-1.02,1.09-1.89-4.16-6.8-11.29-14.01-12.74-22.27,2.65,2.45,5.98,4.41,9.42,4.94,.33,.05,.62-.01,.86-.14-4.72-4.44-7.41-11.77-9.43-17.48-1.63-4.6-3.59-8.96-4.46-13.8-.39-2.15-.68-4.3-.93-6.47-.97,6.56-3.41,13.32-5.4,19.2-2.58,7.62-5.86,14.97-11.05,21.14-.15,.59,.41,1.16,.99,1.21,2.38,.19,4.9-.95,7.08-2.62-.67,1.93-1.34,3.87-2.23,5.66-2.37,4.78-6.58,8.2-8.85,12.88-.31,.64-.11,1.67,.73,1.8,2.62,.43,6.06-1.45,8.95-3.67-1.82,3.92-3.65,7.82-5.71,11.65-2.22,4.12-5.87,7.88-7.3,12.32-.28,.87,.61,1.65,1.44,1.44Z"/><path class="j" d="M647.17,381.98c-3.58-.3-6.83-1.44-9.47-3.63,1.07,3.91,3.25,7.78,5.02,11.2,2.69,5.19,5.79,10.13,9.06,14.97-8.41,1.35-17.34,1.06-25.72,.28-5.02-.47-10.03-1.39-14.85-2.9-2.09-.65-3.79-1.58-5.42-2.59,.83-1.14,1.81-2.01,2.91-3.05,2.61-2.45,4.53-5.33,6.49-8.3,1.7-2.58,3.35-5.2,4.99-7.82,1.08-1.73,2.64-3.65,3.28-5.69-3.85,1.1-8.02,3.09-11.81,1.61-1.04-.41-1.12-1.69-.21-2.28,4.12-2.69,6.99-6.19,9.82-10.17,1.51-2.12,4.45-5.42,4.87-8.39-3.48,1.79-7.35,2.2-11.29,1.75-.69-.08-1.38-.93-.83-1.59,3.76-4.54,7.53-9.36,10.62-14.53,3.55-5.23,5.61-10.26,7.12-16.09,.02,0,.05,.01,.07,.02,.25,5.17,1.74,10.62,2.86,15.06,1.81,7.16,5.22,13.5,9.04,19.75-.08,.29-.28,.53-.6,.58-3.1,.4-5.63-1.6-7.78-3.76,.6,3.85,3.04,7.86,4.71,11.02,2.4,4.53,5.13,8.87,8,13.12,.41,.61-.21,1.49-.9,1.43Z"/><path class="j" d="M598.54,388.94c-2.86-.72-5.16-2.33-7.57-3.82,1.04,2.96,2.42,5.76,4.2,8.39,1.33,1.97,3.06,3.63,4.57,5.42-3.55,.18-7.11,.39-10.64,.24-5.41-.22-10.81-1.5-16.06-2.76-7.01-1.69-13.45-4.08-19.83-6.99,2.98-2.56,6.54-4.45,9.48-7.07,2.02-1.8,6.02-5.03,8.3-8.14-4.68,3.24-8.85,6.87-14.77,8.02-1.03,.2-2.1-.88-1.45-1.89,2.44-3.81,6.15-6.27,9.11-9.61,1.8-2.03,3.12-4.41,4.54-6.7,.62-1,1.8-2.39,2.51-3.76-3.06,2.3-5.68,5.16-9.92,4.77-.91-.08-1.62-1.02-1.09-1.89,4.16-6.8,11.29-14.01,12.74-22.27-2.65,2.45-5.98,4.41-9.42,4.94-.33,.05-.62-.01-.86-.14,4.72-4.44,7.41-11.77,9.43-17.48,1.63-4.6,3.59-8.96,4.46-13.8,.39-2.15,.68-4.3,.93-6.47,.97,6.56,3.41,13.32,5.4,19.2,2.58,7.62,5.86,14.97,11.05,21.14,.15,.59-.41,1.16-.99,1.21-2.38,.19-4.9-.95-7.08-2.62,.67,1.93,1.34,3.87,2.23,5.66,2.37,4.78,6.58,8.2,8.85,12.88,.31,.64,.11,1.67-.73,1.8-2.62,.43-6.06-1.45-8.95-3.67,1.82,3.92,3.65,7.82,5.71,11.65,2.22,4.12,5.87,7.88,7.3,12.32,.28,.87-.61,1.65-1.44,1.44Z"/><path class="j" d="M844.24,407.69c-15.64-2.88-31.89-4.64-47.93-6.6-32.88-4.02-65.91-7.68-99.09-10.8-60.16-5.65-120.84-9.56-181.79-10.64-61.42-1.09-122.96,.37-184.31,1.95-111.48,2.87-222.68,8.89-331.14,24.29v94.11H866v-88c-7.24-1.45-14.45-2.96-21.76-4.3Z"/></g><g id="c"><g><g><path class="ag" d="M574.59,402.84c-45.29-72.51-91.37-144.53-138.5-215.87-13.28-20.1-30.23-38.43-43.6-58.48-.51-.77-1.69-.16-1.43,.6-3.55,2.98-3.46,4.33-7.64,6.49-4.59,2.36-6.67,.73-11.54,2.21-.79,.24-.89,1.24-.39,1.7,6.6,71.22,33.78,289.56,36.88,309.95,.13,.87,7.17,3.39,10.2,4.44,10.99,3.82,23.72,4.52,34.78,4.69,15.44,.25,30.93-1.75,45.83-5.83,14.65-4.01,28.78-10.03,41.76-17.92,12.77-7.77,25.6-17.23,33.54-30.13,.19-.31,.23-.62,.17-.89,.14-.28,.15-.62-.07-.97Z"/><g class="ad"><path class="o" d="M487.47,288.89c-1.12,0-1.12,1.73,0,1.73s1.12-1.73,0-1.73Z"/><path class="o" d="M413.18,229.2c-1.21,0-1.21,1.88,0,1.88s1.21-1.88,0-1.88Z"/><path class="o" d="M408.59,202.48c-.77,0-.78,1.2,0,1.2s.78-1.2,0-1.2Z"/><path class="o" d="M393,188.53c-1.02,0-1.03,1.59,0,1.59s1.03-1.59,0-1.59Z"/><path class="o" d="M405.84,247.54c-1.22,0-1.22,1.89,0,1.89s1.22-1.89,0-1.89Z"/><path class="o" d="M403.09,299.37c-.62,0-.62,.96,0,.96s.62-.96,0-.96Z"/><path class="o" d="M425.1,314.74c-.31,0-.31,.49,0,.49s.31-.49,0-.49Z"/><path class="o" d="M415.93,173.81c-1.08,0-1.08,1.68,0,1.68s1.08-1.68,0-1.68Z"/><path class="o" d="M393.92,212.14c-1.34,0-1.34,2.08,0,2.08s1.34-2.08,0-2.08Z"/><path class="o" d="M409.51,216c-1.09,0-1.09,1.69,0,1.69s1.09-1.69,0-1.69Z"/><path class="o" d="M398.05,232.11c-1.01,0-1.01,1.56,0,1.56s1.01-1.56,0-1.56Z"/><path class="o" d="M467.29,251.17c-.67,0-.67,1.05,0,1.05s.67-1.05,0-1.05Z"/><path class="o" d="M504.44,300.23c-1.28,0-1.28,1.99,0,1.99s1.28-1.99,0-1.99Z"/><path class="o" d="M459.73,245.12c-1.28,0-1.28,1.99,0,1.99s1.28-1.99,0-1.99Z"/><path class="o" d="M495.73,325.92c-1.26,0-1.27,1.96,0,1.96s1.27-1.96,0-1.96Z"/><path class="o" d="M421.43,367.22c-1.23,0-1.23,1.91,0,1.91s1.23-1.91,0-1.91Z"/><path class="o" d="M424.19,403.41c-1.28,0-1.28,1.99,0,1.99s1.28-1.99,0-1.99Z"/><path class="o" d="M442.07,413.58c-1.17,0-1.17,1.82,0,1.82s1.17-1.82,0-1.82Z"/><path class="o" d="M418.88,425.62c-.57-.29-1.21-.12-1.78,.06-.94,.3-.52,1.8,.41,1.48,.56-.19,1.23-.43,1.51-1,.09-.18,.06-.44-.14-.54Z"/><path class="o" d="M412.26,377.8c-1.19,0-1.19,1.85,0,1.85s1.19-1.85,0-1.85Z"/><path class="o" d="M520.45,344.54c-.16-.24-.35-.45-.5-.7-.38-.61-1.3-.64-1.67,0-.35,.59,.09,1.52,.84,1.46,.31-.03,.61,0,.92-.02,.35-.02,.64-.4,.42-.73Z"/><path class="o" d="M531.39,367.5c-.14-.63-.97-.8-1.4-.37-.43,.43-.26,1.27,.37,1.4,.23,.05,.45,.11,.68,.12,.24,0,.48-.22,.47-.47,0-.23-.07-.45-.12-.68Z"/><path class="o" d="M542.04,367.37c-1.04,0-1.04,1.62,0,1.62s1.04-1.62,0-1.62Z"/><path class="o" d="M492.16,357.15c-.09-.03-.19-.05-.29-.06-.65-.09-1.31,.26-1.31,.99s.65,1.08,1.31,.99c.1,0,.2-.03,.29-.06,.92-.25,.93-1.62,0-1.87Z"/><path class="o" d="M511.78,359.12c-.44,0-.44,.69,0,.69s.44-.69,0-.69Z"/><path class="o" d="M514.53,397.14c-1.09,0-1.09,1.69,0,1.69s1.09-1.69,0-1.69Z"/><path class="o" d="M541.13,395.52c-.81,0-.81,1.26,0,1.26s.81-1.26,0-1.26Z"/><path class="o" d="M456.05,228.53c-.08,.07-.17,.14-.24,.22-.14,.13-.14,.37,0,.51,.08,.08,.16,.14,.24,.22,.42,.38,1.13,.13,1.13-.47s-.71-.85-1.13-.47Z"/><path class="o" d="M405.84,271.24c-.52,0-.52,.8,0,.8s.52-.8,0-.8Z"/><path class="o" d="M414.06,344.03l-.08-.06c-.43-.3-1.02,.11-1.02,.58s.59,.89,1.02,.58l.08-.06c.39-.28,.39-.78,0-1.05Z"/><path class="o" d="M420.52,188.46c-.82,0-.82,1.28,0,1.28s.82-1.28,0-1.28Z"/><path class="o" d="M426.25,182.67c-.59,0-.6,.92,0,.92s.6-.92,0-.92Z"/><path class="o" d="M400.57,148.26l-.13,.09c-.98,.64,.34,1.98,.99,.99l.09-.13c.37-.57-.37-1.31-.94-.94Z"/><path class="o" d="M397.13,133.9c-.81,0-.81,1.26,0,1.26s.81-1.26,0-1.26Z"/><path class="o" d="M444.66,266.14c-.2-.07-.4-.08-.61-.1-.82-.06-.82,1.33,0,1.27,.21-.02,.41-.03,.61-.1,.53-.18,.53-.9,0-1.07Z"/><path class="o" d="M445.28,288.66c-.82,0-.82,1.28,0,1.28s.82-1.28,0-1.28Z"/><path class="o" d="M463.47,291.01c-.15,0-.31,0-.46,0-.94,.02-.94,1.44,0,1.46,.15,0,.31,0,.46,0,.94-.01,.95-1.45,0-1.47Z"/><path class="o" d="M472.8,383.44c-.81,0-.81,1.26,0,1.26s.81-1.26,0-1.26Z"/><path class="o" d="M454.05,434.46c-.42-.31-.94-.26-1.43-.27-.81-.01-.81,1.27,0,1.26,.5,0,1.02,.04,1.43-.27,.27-.2,.27-.53,0-.72Z"/><path class="o" d="M467.29,440.9c-.83,0-.84,1.3,0,1.3s.84-1.3,0-1.3Z"/><path class="o" d="M481.36,416.47c-.8,0-.8,1.24,0,1.24s.8-1.24,0-1.24Z"/><path class="o" d="M547.39,419.5c-.84,0-.84,1.3,0,1.3s.84-1.3,0-1.3Z"/></g><g><path class="x" d="M428.6,277.74c-.2-.74-.56-2.21-1.24-2.62-.86-.53-1.86,.01-2.06,.97l-.09-.41c-.21,2.18-.64,10.92,2.87,10.79,2.03-.07,.95-7.18,.52-8.73Z"/><path class="x" d="M447.86,283.69c-.86-1.17-3.86-1.96-4.05,.15h-.22c-.18,1.92,3.28,11.41,5.9,9.31,1.99-1.6-.44-7.84-1.63-9.46Z"/><path class="x" d="M458.27,275.85c-1.64-.63-2.84,.27-3.2,1.86v.22c1.09,1.26,2.38,2.75,3.78,3.67,.81,.53,2.99,1.57,3.87,.91,2.4-1.81-3.03-6.11-4.46-6.66Z"/><path class="x" d="M426.91,255.59c0-.08-.03-.15-.07-.21,0-.01,0-.02,0-.03-1.38-3.77-5.99-7.17-9.72-8.29-3.53-1.06-8.67,.4-8.65,4.85,.02,4.1,4.67,7.27,8.26,8.01,2.8,.58,10.61,.1,10.18-4.32Z"/><path class="m" d="M460.82,267.35c-.81-1-2.42-1.9-4.06-2.25,0-2.04-.96-4.04-2.67-5.46-1.84-1.52-5.17-2.65-7.64-1.81,.12-3.57-3.11-6.86-7.18-6.27-.9,.13-1.76,.44-2.57,.87-1.95-.06-4.42,.98-5.38,1.87-1.39,1.28-2.63,3.7-3.01,6.06-1.36-.67-2.91-.86-4.46-.41-1.92,.56-3.68,2.2-3.71,4.31-.03,2.31,1.78,4.2,3.91,4.94-.46,.51-.86,1.09-1.16,1.74-.92,2.02-1.13,5.02,.07,6.96,1.69,2.73,5.5,3.16,8.23,1.74-.44,2.61,.92,5.66,3.45,6.68,2.31,.94,5.39,.12,7.36-1.67,1.8,2.39,5.88,3.11,8.78,1.96,2.22-.88,4.03-2.62,4.91-4.85,.17-.43,.32-.95,.44-1.51,1.35,.12,2.76-.76,3.58-1.92,.6-.84,1.23-2,1.08-3.08,1.7-2.34,1.92-5.56,.01-7.91Z"/><path class="m" d="M433.34,253c-.1-1.36-1.31-2.23-2.59-2.38,.08-1.49-.82-3.13-2.51-3.17-1.47-.03-2.64,1.16-2.9,2.55-.07,.41-.13,.99-.11,1.57-1.61-.34-3.33,.17-3.58,2.1-.14,1.13,.71,2.21,1.81,2.79-.4,.65-.52,1.49-.3,2.28,.47,1.73,2.19,2.92,3.94,3.02,1.59,.09,3.35-.74,3.91-2.31,.24-.69,.2-1.52-.09-2.24,.48-.19,.93-.52,1.27-.87,.85-.87,1.22-2.14,1.13-3.34Z"/><path class="q" d="M454.96,278.02c.25,1.27-.44,2.67-1.6,3.25-1.16,.57-2.7,.26-3.55-.72,.07,1.54-1.5,2.83-3.04,2.77-1.54-.06-2.89-1.21-3.55-2.61-.27,1.35-1.06,2.63-2.25,3.31-1.19,.68-2.8,.68-3.89-.17-1.08-.85-1.45-2.55-.67-3.68-.87,.59-2.12,.53-2.93-.13-.81-.66-1.12-1.87-.71-2.84-.87,.84-2.03,1.39-3.23,1.41-1.2,.02-2.43-.55-3.1-1.55-.79-1.19-.7-2.81-.08-4.11s1.68-2.31,2.77-3.24c-1.1,.45-2.47,.08-3.2-.85-.73-.93-.76-2.35-.07-3.31-1.53,.29-3.18-.22-4.29-1.32-.46-.46-.82-1.02-1.06-1.62-.24,.5-.38,1.05-.39,1.63-.03,2.31,1.78,4.2,3.91,4.94-.46,.51-.86,1.09-1.16,1.74-.92,2.02-1.13,5.02,.07,6.96,1.69,2.73,5.5,3.16,8.23,1.74-.44,2.61,.92,5.66,3.45,6.68,2.31,.94,5.39,.12,7.36-1.67,1.8,2.39,5.88,3.11,8.78,1.96,2.22-.88,4.03-2.62,4.91-4.85,.17-.43,.32-.95,.44-1.51,.84,.07,1.7-.24,2.43-.76-1.35-.04-2.67-.51-3.61-1.48Z"/><path class="q" d="M432.74,251.62c-.15,.07-.31,.13-.47,.19,.6,.79,.72,1.91,.31,2.81-.41,.9-1.33,1.55-2.32,1.62-.3,1.03-.96,1.98-1.92,2.46-.96,.48-2.22,.38-2.98-.38s-.78-2.18,.06-2.84c-1.42,.26-2.95-.66-3.39-2.03-.07-.22-.11-.43-.12-.63-.12,.25-.21,.54-.25,.87-.14,1.13,.71,2.21,1.81,2.79-.4,.65-.52,1.49-.3,2.28,.47,1.73,2.19,2.92,3.94,3.02,1.59,.09,3.35-.74,3.91-2.31,.24-.69,.2-1.52-.09-2.24,.48-.19,.93-.52,1.27-.87,.85-.87,1.22-2.14,1.13-3.34-.04-.55-.26-1.02-.59-1.39Z"/><path class="t" d="M422.49,262.36c-.11-1.1-.32-2.51-.92-3.43-.19-.29-.57-.7-.94-.46-.41,.26-.64,1.16-.81,1.59-.54,1.34-.95,2.79-1.05,4.24-.02,.33-.03,.67,0,1,.02,.3,.19,.69,.17,.98,.52,1.91,2.31,1.51,3.03-.01,.55-1.16,.66-2.47,.54-3.74,0-.06-.01-.12-.02-.18Z"/><path class="m" d="M420.15,252.74c-.7-.79-1.92-1.12-2.9-.66-1.12,.53-1.82,2.02-1.33,3.2,.57,1.38,2.44,1.83,3.71,1.06,.97-.59,1.34-1.86,.95-2.91-.1-.26-.24-.49-.42-.7Z"/><path class="m" d="M423.31,248.16s-.06-.06-.09-.09c-.77-.74-1.96-.74-2.79-.08-1,.79-.76,2.28,.21,2.99,.65,.48,1.56,.64,2.3,.29,1.21-.58,1.22-2.2,.37-3.11Z"/><path class="j" d="M417.88,253.04c-.37,0-.72,.33-.71,.71,.02,.38,.31,.71,.71,.71,.37,0,.72-.33,.71-.71-.02-.38-.31-.71-.71-.71Z"/><path class="j" d="M421.52,248.25c-.35,0-.68,.31-.66,.66,.02,.36,.29,.66,.66,.66,.35,0,.68-.31,.66-.66-.02-.36-.29-.66-.66-.66Z"/><path class="w" d="M412.85,250.9c-.32-.71-1.23-.98-1.94-1.07-.46-.05-.67,.71-.24,.89,.58,.25,1.05,.68,1.63,.9,.44,.16,.71-.37,.55-.72Z"/><path class="w" d="M413.73,249.35c-.12-.49-.71-.72-1.14-.89-.23-.09-.5,.1-.56,.32-.07,.26,.09,.47,.32,.56,.35,.15,.65,.44,1.05,.45,.23,0,.39-.22,.34-.44Z"/></g><g><g><path class="x" d="M459.99,370.46c-.29-.78-.9-2.31-.56-3.11,.43-1.01,1.65-1.16,2.44-.44l-.18-.42c1.57,1.8,7.47,9.26,4.28,11.37-1.85,1.22-5.38-5.76-5.98-7.4Z"/><path class="x" d="M435.21,372.41c.63-1.46,3.61-3.03,4.33-.84l.23-.05c.66,1.99-.67,12.9-3.97,11.32-2.5-1.2-1.46-8.42-.6-10.43Z"/><path class="x" d="M426.46,362.68c1.7-.88,3.11-.06,3.69,1.62l.03,.24c-1.02,1.5-2.23,3.26-3.64,4.43-.81,.67-3.03,2.07-4.08,1.46-2.82-1.65,2.52-6.98,4-7.75Z"/><path class="m" d="M424.24,359.05c-.44,1.1-.07,2.49,.34,3.53,.57,1.44,1.83,2.74,3.28,2.96-.02,.62,0,1.21,.07,1.71,.34,2.59,1.8,4.89,3.92,6.4,2.77,1.97,7.26,2.28,9.79,.22,1.61,2.4,4.65,4.07,7.33,3.69,2.95-.42,5.18-3.29,5.4-6.16,2.51,2.21,6.64,2.75,9.15,.31,1.78-1.74,2.34-4.96,1.9-7.33-.14-.77-.41-1.48-.77-2.14,2.44-.22,4.85-1.75,5.42-4.2,.53-2.23-.9-4.43-2.79-5.52-1.52-.88-3.2-1.08-4.82-.74,.22-2.59-.46-5.47-1.6-7.19-.79-1.2-3.13-2.93-5.2-3.38-.74-.67-1.57-1.22-2.48-1.59-4.15-1.68-8.42,.94-9.22,4.75-2.39-1.53-6.2-1.21-8.55-.08-2.18,1.05-3.71,2.91-4.25,5.07-1.83-.06-3.77,.48-4.88,1.32-2.63,1.99-3.24,5.45-2.06,8.36Z"/><path class="q" d="M429.69,363.48c-.6,1.28-.24,2.94,.84,3.85s2.78,.98,3.93,.17c-.48,1.61,.84,3.39,2.49,3.72,1.64,.34,3.37-.52,4.43-1.83-.06,1.5,.43,3.05,1.51,4.08,1.08,1.03,2.78,1.45,4.15,.84,1.37-.61,2.2-2.32,1.67-3.71,.76,.85,2.1,1.12,3.12,.63,1.03-.49,1.67-1.69,1.5-2.81,.7,1.11,1.78,2,3.04,2.33,1.27,.33,2.71,.06,3.67-.83,1.15-1.05,1.47-2.79,1.16-4.32-.31-1.53-1.17-2.88-2.08-4.14,1.04,.76,2.58,.73,3.6-.06,1.02-.79,1.42-2.28,.94-3.47,1.54,.7,3.42,.6,4.87-.27,.61-.36,1.13-.86,1.54-1.43,.12,.59,.13,1.21-.01,1.83-.58,2.45-2.98,3.97-5.42,4.2,.36,.66,.62,1.37,.77,2.14,.44,2.37-.12,5.59-1.9,7.33-2.5,2.44-6.63,1.9-9.15-.31-.22,2.87-2.45,5.73-5.4,6.16-2.68,.39-5.73-1.28-7.33-3.69-2.52,2.06-7.02,1.75-9.79-.22-2.12-1.51-3.57-3.82-3.92-6.4-.07-.5-.09-1.09-.07-1.71-.9-.14-1.73-.69-2.37-1.44,1.44,.32,2.96,.15,4.2-.62Z"/></g><path class="t" d="M472.91,343.95c-.94,.76-2.1,1.79-2.57,2.88-.15,.35-.3,.94,.15,1.13,.48,.21,1.44-.12,1.93-.21,1.54-.31,3.11-.8,4.49-1.57,.32-.18,.62-.38,.91-.6,.26-.2,.51-.59,.79-.74,1.43-1.61,0-3-1.82-2.75-1.38,.19-2.64,.88-3.72,1.74-.05,.04-.1,.08-.16,.13Z"/><path class="x" d="M468.87,359.38c3.2,2.38,9.14,3.86,12.48,.89,3.62-3.22,1.08-8.44-2.34-10.54-3.61-2.21-9.71-3.49-13.78-1.87-.01,0-.02,.01-.03,.02-.08,.02-.15,.05-.22,.1-3.89,2.86,1.38,9.54,3.88,11.4Z"/><path class="m" d="M460.53,344.24c-.04,.54,.02,1.14,.21,1.67-.79,.29-1.5,.86-1.88,1.55-.88,1.59-.27,3.62,.96,4.85,1.35,1.35,3.57,1.88,5.31,1,.79-.4,1.39-1.11,1.63-1.9,1.27,.47,2.77,.39,3.58-.55,1.38-1.6,.55-3.36-.9-4.42,.49-.4,.92-.87,1.2-1.23,.94-1.21,1.06-3.03-.03-4.2-1.25-1.34-3.24-.88-4.39,.27-1.05-.93-2.63-1.28-3.81-.37-1.04,.8-1.8,2.02-1.89,3.34Z"/><path class="q" d="M463.97,340.37c.06,.18-1.7,.77-2.32,2.3-.4,1-.29,2.2,.37,3.05-.61,.99-.91,2.22-.6,3.34,.31,1.12,1.31,2.08,2.47,2.14,1.16,.06,2.33-.95,2.26-2.11,.82,1.34,2.68,1.92,4.11,1.28,.23-.1,.43-.22,.6-.35-.11,.28-.28,.56-.52,.83-.81,.94-2.31,1.02-3.58,.55-.24,.79-.84,1.5-1.63,1.9-1.75,.88-3.96,.34-5.31-1-1.23-1.22-1.83-3.25-.96-4.85,.38-.7,1.09-1.27,1.88-1.55-.19-.53-.25-1.13-.21-1.67,.09-1.32,.85-2.54,1.89-3.34,.47-.37,1.01-.52,1.56-.53Z"/><path class="t" d="M463.89,357.35c.52-1.09,1.25-2.46,2.2-3.17,.31-.23,.84-.51,1.14-.12,.32,.42,.22,1.42,.24,1.93,.06,1.57-.06,3.21-.49,4.73-.1,.35-.22,.69-.37,1.03-.14,.3-.45,.64-.53,.94-1.23,1.76-2.92,.69-3.1-1.13-.13-1.39,.24-2.77,.82-4.02,.03-.06,.06-.12,.09-.18Z"/><path class="m" d="M471.32,351.57c-1.13,.44-1.9,1.66-1.67,2.88,.3,1.58,2.01,2.77,3.55,2.23,1.3-.46,2.01-2.1,1.63-3.4-.34-1.13-1.49-1.88-2.64-1.87-.3,0-.59,.05-.87,.16Z"/><path class="m" d="M471.37,348.07c.25,.86,1.05,1.48,1.9,1.66,1.29,.27,2.66-.61,2.58-2-.07-1.15-.94-2.12-2.09-2.2-.05,0-.09,0-.14,0-1.35-.03-2.66,1.15-2.25,2.56Z"/><path class="j" d="M472.7,354.76c.27,.3,.26,.82-.06,1.09-.32,.26-.8,.26-1.09-.06-.27-.3-.26-.82,.06-1.09,.32-.26,.8-.26,1.09,.06Z"/><path class="j" d="M474.18,348.3c.25,.28,.25,.77-.06,1.02-.3,.25-.75,.24-1.02-.06-.25-.28-.25-.77,.06-1.02,.3-.25,.75-.24,1.02,.06Z"/><path class="w" d="M478.99,355.98c.81-.25,1.69,.28,2.27,.8,.38,.33-.09,1.05-.55,.84-.62-.29-1.31-.35-1.91-.67-.45-.24-.21-.84,.18-.97Z"/><path class="w" d="M479.6,354.15c.48-.26,1.1,.05,1.55,.28,.24,.12,.28,.48,.15,.69-.16,.25-.44,.27-.69,.15-.38-.18-.83-.21-1.12-.52-.17-.19-.1-.48,.11-.59Z"/></g><path class="ah" d="M549.31,404.08c-6.58-11.47-13.56-22.7-20.39-34.03-6.08-10.09-11.79-20.4-17.83-30.52-30.91-51.89-119.38-207-120.48-208.8-2.24,1.81-4.54,3.49-7.19,4.86-2.91,1.5-5.89,2.43-8.93,3.29,1.81,8.11,4.41,16.03,6.21,24.13,17.78,79.98,29.82,157.94,43.2,237.01,4.69,18.77,7.11,38.46,10.99,57.45,6.28,.77,12.6,1.02,18.45,1.11,15.44,.25,30.93-1.75,45.83-5.83,14.65-4.01,28.78-10.03,41.76-17.92,6.2-3.77,12.4-7.94,18.06-12.7-3.08-6.09-6.28-12.11-9.69-18.05Z"/><path class="af" d="M574.59,402.84c-45.29-72.51-91.37-144.53-138.5-215.87-13.28-20.1-30.23-38.43-43.6-58.48-.51-.77-1.69-.16-1.43,.6-3.55,2.98-3.46,4.33-7.64,6.49-4.59,2.36-6.67,.73-11.54,2.21-.79,.24-.89,1.24-.39,1.7,6.6,71.22,33.78,289.56,36.88,309.95,.13,.87,7.17,3.39,10.2,4.44,10.99,3.82,23.72,4.52,34.78,4.69,15.44,.25,30.93-1.75,45.83-5.83,14.65-4.01,28.78-10.03,41.76-17.92,12.77-7.77,25.6-17.23,33.54-30.13,.19-.31,.23-.62,.17-.89,.14-.28,.15-.62-.07-.97Z"/></g><g><path class="r" d="M253.04,209.88c-2.38,6-1.01,11.19,1.04,14.64,8.25,13.88,36.29,14.09,56.02,11.03,24.1-3.74,57.24-13.72,80.08-22.89,31.79-12.77,49.99-22.41,72.82-37.28,36.71-23.91,50.42-40.81,57.77-50.23,7.3-9.36,14.19-22.82,12.07-34.25-1.13-6.13-6.02-10.35-9.46-12.45-5.16-3.15-10.44-3.31-16.24-2.42L253.04,209.88Z"/><path class="l" d="M524.57,79.82c-4.46-4.98-11.83-7.44-19.34-7.62-37.19-.92-74.85,15.77-108.19,30.34-24.91,10.89-49.29,23.27-72.26,37.85-25.3,16.05-53.57,35.83-68.86,62.36-2.31,4-4.28,8.64-3.19,13.12,.91,3.72,3.81,6.67,7.03,8.74,11.83,7.58,28.79,6.87,41.95,5.01,14.8-2.09,29.38-5.53,43.69-9.84,31.8-9.59,59.93-22.36,89.5-37.55,25.59-13.15,49.69-29.32,69.98-49.88,10.22-10.35,22.89-24.02,23.94-39.35,.38-5.53-1.3-9.9-4.24-13.18Z"/><path class="v" d="M326.29,148.56c-7.75,.94-15.45,3.13-22.65,5.92-2.44,1.74-4.86,3.51-7.26,5.33,2.74-1.52,5.61-2.89,8.71-4.05,6.42-2.39,12.99-3.75,19.65-4.91,.44-.79,.98-1.56,1.56-2.3Z"/><path class="v" d="M432.77,87.56c-.1,.09-.19,.18-.29,.27-4.42,4.1-8.32,8.46-12.19,13.11,.08,.17,.25,.31,.33,.48,.07,.09,.13,.19,.18,.29,.22,.41,.42,.77,.62,1.19,3.14-3.62,6.05-7.02,9.41-10.44,2.48-2.52,5.07-5.03,7.93-7.14-2.01,.73-4.01,1.48-6.01,2.24Z"/><path class="v" d="M487.2,112.06c-20.75,1.21-42.04,4.77-61.71,11.58-.82,.28-.51,1.55,.35,1.32,17.53-4.69,35.11-8.6,53.22-10.27,8.1-.74,16.25-1.13,24.38-.9,4.21,.12,11.79,.04,14.5,3.97,.45-.59,.9-1.19,1.34-1.8-5.46-6.8-27.03-4.19-32.08-3.9Z"/><path class="v" d="M528.82,90.47c-3.11-3.6-9.26-5.67-13.01-6.67-10.1-2.68-20.85-1.41-30.89,.9-20.82,4.81-40.08,14.24-58.96,24.02,.44,.46,.82,.97,1.15,1.53,16.44-7.84,32.69-15.93,50.3-21.03,15.26-4.43,40.17-9.44,51.22,5.62,.08-.61,.15-1.23,.19-1.85,.06-.87,.05-1.71,.01-2.52Z"/><path class="v" d="M453.12,147.97c-13.49-4.94-27.68-7.25-41.76-9.84-1.14-.21-1.67,1.5-.5,1.76,10.21,2.23,20.61,3.74,30.6,6.88,10.15,3.18,19.38,6.52,28.01,14.93,.69-.48,1.38-.97,2.07-1.45,.56-.39-2.9-4.15-7.83-7.32-3.26-2.1-6.98-3.62-10.6-4.94Z"/><path class="v" d="M387.81,151.23c-.04-1.04-1.56-1.06-1.62-.02-.57,10.45,.43,20.59,2.36,30.85,1.13,6,1.92,14.3,5.98,19.5,.68-.3,1.37-.59,2.05-.89-7.15-15.36-8.12-32.63-8.78-49.44Z"/><path class="v" d="M334.75,193.11c3.3-12.37,7.21-24.24,14.01-35.18,.54-.86-.76-1.61-1.34-.8-7.89,11.05-11.85,24.39-15.33,37.37-2.23,8.31-5.55,20.54-2.81,29.72,.89-.22,1.78-.46,2.67-.69-.68-4.1-1.15-8.07-.75-12.45,.55-6.08,1.98-12.08,3.56-17.97Z"/><path class="v" d="M325.42,154.71c-4.55,3-10.63,8.67-14.64,11.83-8.07,6.37-15.13,13.93-22.07,21.48-6.51,7.08-12.74,14.48-17.87,22.64-3.25,5.18-6.36,11.2-4.99,16.98,.92,.35,1.85,.68,2.8,.96-.75-4.29-.78-7.66,1.67-12.29,1.85-3.48,4.1-6.79,6.39-9.99,5.32-7.45,11.47-14.25,17.74-20.9,5.69-6.04,11.46-12.03,17.95-17.21,3.62-2.89,10.19-7.82,14.39-10.95,.34-.26,.16-.8-.27-.79-1.18,.02-1.02-1.27-1.1-1.75Z"/><path class="ab" d="M330.68,152.82c-1.06,.31-2.09,.73-3.1,1.2-.18,.72-.19,1.41,0,2.07,1.18-.74,2.39-1.41,3.63-1.98,.73-.33,.23-1.52-.53-1.29Z"/><path class="j" d="M390.31,141.37c-.11-2.78-2.08-4.77-4.2-6.46-1.32-1.05-2.73-2.02-3.84-3.27-1.99-2.23-1.96-4.68-1.35-7.4,.65-2.88,1.44-6.52,.07-9.32-.27-.56-.64-1.06-1.07-1.52,.41-.38,.85-.75,1.35-1.05,1.17-.71,3.34-1.6,4.77,.09,.26,.31,.71,.13,.77-.27,.28-1.66,.19-3.37-.65-4.89-.71-1.28-1.74-2.24-3.3-2.95-.14-.06-.36-.01-.39,.15-.48,3.02-1.79,5.61-3.88,7.79-1.02-.7-2.2-1.18-3.4-1.42-4.18-.84-7.25,1.79-8.79,5.63-2.79,.8-5.73-.64-7.96-2.28-.1-.07-.22-.07-.32-.04-.12-.01-.24,.04-.27,.17-.57,2.98-.5,5.68,1.43,8.21,.18,.24,.66,.28,.74-.08,.59-2.68,3.11-3.61,5.69-3.72-.25,1.22-.29,2.4-.08,3.36,.43,1.93,1.7,3.65,3.19,4.97,1.68,1.48,3.96,2.46,5.25,4.31,3.06,4.37-1.59,9.76-.24,14.42,.08,.28,.72,.82,.73,.82,2.64,.67,5.4-.61,8.01-1.2,2.5-.57,5.21-1.29,7.27-2.82,.37-.28,.47-.66,.4-1.04,.04-.05,.06-.1,.06-.18Z"/><path class="o" d="M261.47,227.01c-.63-.15-1.25,.03-1.5,.79-.29,.87,.32,2.08,1.15,2.43,.87,.37,2.09-.02,2.19-1.07,.09-.94-.89-1.92-1.84-2.15Z"/><path class="u" d="M276.14,231.61c-.84-.57-2.07-.56-2.57,.68-.76,1.87,2.1,3.53,3.17,1.71,.56-.96,.12-1.89-.6-2.39Z"/><path class="o" d="M289.6,232.04c-.78-.37-1.96-.13-2.57,.54,0,0-.02,0-.02,.01-.87,.78-.29,2.37,.55,2.92,.98,.64,2.33,.33,2.98-.64,.68-1.02,.12-2.34-.93-2.84Z"/><path class="o" d="M426.68,190.14c-.73-.34-1.82-.12-2.38,.5,0,0-.02,0-.02,.01-.8,.72-.27,2.2,.51,2.71,.9,.6,2.17,.31,2.76-.59,.63-.95,.11-2.17-.87-2.63Z"/><path class="u" d="M497.03,144.52c-.73-.34-1.82-.12-2.38,.5,0,0-.02,0-.02,.01-.8,.72-.27,2.2,.51,2.71,.9,.6,2.17,.31,2.76-.59,.63-.95,.11-2.17-.87-2.63Z"/><path class="u" d="M471.08,164.07c-.73-.34-1.82-.12-2.38,.5,0,0-.02,0-.02,.01-.8,.72-.27,2.2,.51,2.71,.9,.6,2.17,.31,2.76-.59,.63-.95,.11-2.17-.87-2.63Z"/><path class="u" d="M305.14,230.94c-1.36-.54-2.77,.59-2.58,2.03,.22,1.72,2.54,2.32,3.5,.82,.63-.99,.17-2.42-.92-2.85Z"/><path class="u" d="M410.53,197.84c-1.36-.54-2.77,.59-2.58,2.03,.22,1.72,2.54,2.32,3.5,.82,.63-.99,.17-2.42-.92-2.85Z"/><path class="o" d="M360.92,217.3c-1.36-.54-2.77,.59-2.58,2.03,.22,1.72,2.54,2.32,3.5,.82,.63-.99,.17-2.42-.92-2.85Z"/><path class="o" d="M324.44,227.81c-.91-.66-2.26-.37-2.88,.55-1.39,2.07,1.53,4.22,3.16,2.48,.79-.85,.67-2.35-.27-3.03Z"/><path class="u" d="M379.13,211.6c-.91-.66-2.26-.37-2.88,.55-1.39,2.07,1.53,4.22,3.16,2.48,.79-.85,.67-2.35-.27-3.03Z"/><path class="o" d="M484.29,154.68c-.91-.66-2.26-.37-2.88,.55-1.39,2.07,1.53,4.22,3.16,2.48,.79-.85,.67-2.35-.27-3.03Z"/><path class="u" d="M342.58,222.66c-.97,.07-1.65,.92-1.7,1.86-.04,.89,.48,1.75,1.37,1.97,1.13,.28,2.28-.58,2.39-1.72,.1-1.11-.94-2.19-2.05-2.11Z"/><path class="o" d="M393.29,204.65c-.97,.07-1.65,.92-1.7,1.86-.04,.89,.48,1.75,1.37,1.97,1.13,.28,2.28-.58,2.39-1.72,.1-1.11-.94-2.19-2.05-2.11Z"/><path class="u" d="M441.17,181.97c-.97,.07-1.65,.92-1.7,1.86-.04,.89,.48,1.75,1.37,1.97,1.13,.28,2.28-.58,2.39-1.72,.1-1.11-.94-2.19-2.05-2.11Z"/><path class="o" d="M506.27,134.22c-.97,.07-1.65,.92-1.7,1.86-.04,.89,.48,1.75,1.37,1.97,1.13,.28,2.28-.58,2.39-1.72,.1-1.11-.94-2.19-2.05-2.11Z"/><path class="o" d="M456.14,173.02c-.97,.07-1.65,.92-1.7,1.86-.04,.89,.48,1.75,1.37,1.97,1.13,.28,2.28-.58,2.39-1.72,.1-1.11-.94-2.19-2.05-2.11Z"/><path class="u" d="M516.37,125.04c-.84-.57-2.07-.56-2.57,.68-.76,1.87,2.1,3.53,3.17,1.71,.56-.96,.12-1.89-.6-2.39Z"/><path class="o" d="M524.41,114.5c-.74-.51-1.82-.49-2.26,.6-.67,1.65,1.85,3.11,2.79,1.5,.49-.84,.11-1.66-.53-2.1Z"/><path class="u" d="M530.16,103.05c-.74-.51-1.82-.49-2.26,.6-.67,1.65,1.85,3.11,2.79,1.5,.49-.84,.11-1.66-.53-2.1Z"/><path class="o" d="M530.81,89.97c-.57-.14-1.13,.03-1.36,.72-.27,.79,.29,1.88,1.04,2.2,.79,.34,1.89-.02,1.98-.97,.08-.85-.81-1.74-1.66-1.95Z"/><g class="a`"><path class="u" d="M425.18,110.36c-4.13-9.32-10.02-18.2-17.23-26.02-8.46-9.18-16.96-15.99-29.29-19.82-13.18-4.1-28.58-3.58-40.03,4.56-24.41,17.34-28.41,60.75-12.97,84.44,0,0,31.15,8.04,55.87-3.78,45.16-21.58,43.65-39.37,43.65-39.37Z"/></g><g class="ac"><path class="h" d="M425.18,110.36c-4.13-9.32-10.02-18.2-17.23-26.02-8.46-9.18-16.96-15.99-29.29-19.82-13.18-4.1-28.58-3.58-40.03,4.56-24.41,17.34-28.41,60.75-12.97,84.44,0,0,31.15,8.04,55.87-3.78,45.16-21.58,43.65-39.37,43.65-39.37Z"/></g><path class="r" d="M324.49,156.68c16.16,6.25,34.9,3.43,44.77,1.18,11.24-2.56,22.06-6.82,31.96-12.5,9.58-5.48,19.44-12.49,25.95-21.28,.38-.51,.75-1.03,1.1-1.56,1-1.47,1.84-3.05,2.38-4.73,0,0,.95-3.27-.64-7.12-1.59-3.85-5.02-4.05-5.02-4.05-2.67,5.76-6.45,10.95-11.06,15.45-16.52,16.15-41.64,25.76-63.37,27.33-9.64,.7-22.07,.73-29.86-3.67,0,0-.73,3.49,.56,6.48,1.35,3.13,3.22,4.47,3.22,4.47Z"/><g><path class="u" d="M332.44,150.64c-1.63-.85-3.9-.84-5.03,.75-1.38,1.93-.3,4.5,1.75,5.38,3.46,1.5,7.39-2.91,4.03-5.65-.23-.18-.48-.35-.74-.49Z"/><g><path class="o" d="M330.62,155.66c-.3,0-.59-.06-.86-.18-.64-.28-1.13-.84-1.31-1.5-.16-.59-.06-1.2,.29-1.69,.36-.51,.95-.79,1.65-.79,.44,0,.9,.11,1.3,.32,.15,.08,.3,.18,.43,.28,.68,.56,.92,1.31,.66,2.06-.31,.87-1.22,1.5-2.16,1.5h0Z"/><path class="m" d="M330.4,151.74c.41,0,.83,.11,1.19,.3,.14,.07,.27,.16,.39,.26,1.52,1.24,.21,3.13-1.35,3.13-.25,0-.51-.05-.77-.16-1.08-.47-1.65-1.82-.92-2.83,.35-.48,.89-.69,1.46-.69m0-.48c-.78,0-1.44,.32-1.85,.89-.4,.56-.51,1.23-.33,1.89,.2,.73,.74,1.35,1.45,1.66,.31,.13,.63,.2,.96,.2,1.04,0,2.05-.7,2.39-1.66,.3-.84,.02-1.71-.73-2.33-.14-.12-.3-.22-.47-.31-.43-.23-.93-.35-1.41-.35h0Z"/></g><path class="m" d="M330.32,152.07c-.82,.16-1.45,1.25-.86,1.96,.28,.33,.75,.12,.88-.22,.12-.3,.03-.64,.33-.86,.43-.31,.2-.98-.36-.87Z"/><path class="m" d="M330.9,154.27c-.49,0-.5,.75,0,.76,.49,0,.5-.75,0-.76Z"/></g><g><path class="u" d="M352.85,151.59c-1.67-.78-3.93-.67-5,.96-1.3,1.99-.11,4.5,1.98,5.31,3.52,1.36,7.26-3.22,3.79-5.81-.23-.17-.49-.33-.76-.45Z"/><g><path class="o" d="M351.15,156.77c-.28,0-.55-.05-.81-.15-.68-.26-1.22-.83-1.44-1.51-.2-.61-.11-1.24,.23-1.77,.37-.57,1.03-.9,1.8-.9,.43,0,.86,.1,1.26,.28,.16,.08,.32,.17,.46,.28,.75,.56,1.03,1.35,.76,2.16-.31,.94-1.27,1.62-2.27,1.62h0Z"/><path class="m" d="M350.94,152.68c.4,0,.8,.09,1.16,.26,.15,.07,.29,.16,.42,.25,1.68,1.25,.31,3.34-1.36,3.34-.24,0-.48-.04-.73-.14-1.15-.44-1.81-1.83-1.09-2.93,.36-.55,.97-.79,1.6-.79m0-.48c-.86,0-1.59,.37-2,1.01-.39,.59-.48,1.3-.26,1.98,.24,.75,.83,1.37,1.58,1.66,.29,.11,.59,.17,.9,.17,1.1,0,2.15-.75,2.5-1.78,.3-.9-.02-1.81-.85-2.43-.15-.11-.32-.22-.5-.3-.43-.2-.9-.31-1.36-.31h0Z"/></g><path class="m" d="M350.77,153.02c-.86,.2-1.47,1.37-.81,2.09,.31,.33,.8,.09,.92-.27,.11-.32,0-.67,.31-.91,.43-.35,.16-1.04-.41-.9Z"/><path class="m" d="M351.47,155.31c-.51,.02-.49,.81,.02,.8,.51-.02,.49-.81-.02-.8Z"/></g><g><path class="u" d="M373.11,148.12c-1.71-.7-3.96-.46-4.94,1.22-1.19,2.05,.13,4.5,2.25,5.19,3.59,1.17,7.08-3.6,3.47-6-.24-.16-.51-.3-.79-.41Z"/><g><path class="o" d="M371.57,153.25c-.22,0-.44-.04-.65-.1-.64-.21-1.17-.71-1.41-1.33-.21-.56-.17-1.15,.13-1.66,.34-.59,.99-.93,1.77-.93,.35,0,.71,.07,1.04,.2,.16,.06,.31,.14,.44,.23,.74,.49,1.04,1.25,.8,2.02-.27,.89-1.19,1.57-2.13,1.57h0Z"/><path class="m" d="M371.41,149.46c.32,0,.65,.07,.95,.19,.14,.06,.28,.13,.4,.21,1.64,1.09,.4,3.15-1.19,3.15-.19,0-.38-.03-.58-.09-1.08-.35-1.75-1.6-1.15-2.64,.33-.57,.94-.81,1.56-.81m0-.48c-.87,0-1.59,.38-1.98,1.05-.33,.58-.39,1.24-.15,1.87,.26,.69,.85,1.24,1.56,1.47,.24,.08,.48,.12,.73,.12,1.06,0,2.05-.73,2.36-1.74,.27-.88-.07-1.74-.9-2.29-.15-.1-.31-.18-.48-.26-.36-.15-.75-.22-1.13-.22h0Z"/></g><path class="m" d="M371.14,149.79c-.78,.23-1.29,1.34-.65,1.96,.3,.29,.74,.04,.83-.3,.08-.3-.03-.61,.24-.86,.38-.34,.1-.96-.43-.81Z"/><path class="m" d="M371.9,151.86c-.47,.04-.41,.77,.06,.73,.47-.04,.41-.77-.06-.73Z"/></g><g><path class="u" d="M394.98,139.64c-1.72-.66-3.97-.38-4.91,1.33-1.15,2.08,.23,4.5,2.37,5.14,3.61,1.09,7-3.75,3.34-6.08-.25-.16-.51-.29-.79-.4Z"/><g><path class="o" d="M393.5,144.88c-.21,0-.43-.03-.63-.09-.67-.2-1.23-.71-1.49-1.35-.24-.58-.2-1.19,.1-1.73,.35-.64,1.04-1.01,1.88-1.01,.35,0,.7,.07,1.03,.19,.17,.06,.32,.14,.47,.23,.78,.5,1.11,1.28,.87,2.1-.28,.94-1.23,1.66-2.21,1.66h0Z"/><path class="m" d="M393.35,140.94c.32,0,.65,.06,.94,.17,.15,.06,.29,.13,.42,.21,1.75,1.11,.46,3.31-1.21,3.31-.18,0-.37-.03-.56-.08-1.14-.34-1.87-1.63-1.26-2.73,.34-.61,1-.88,1.67-.88m0-.48c-.93,0-1.69,.41-2.09,1.13-.33,.6-.37,1.29-.11,1.94,.29,.71,.9,1.27,1.65,1.49,.23,.07,.46,.1,.7,.1,1.11,0,2.14-.77,2.45-1.83,.27-.92-.1-1.81-.97-2.37-.16-.1-.33-.18-.51-.25-.35-.13-.74-.21-1.11-.21h0Z"/></g><path class="m" d="M393.03,141.29c-.81,.26-1.31,1.42-.63,2.06,.32,.3,.77,.03,.86-.33,.08-.32-.05-.64,.23-.9,.39-.37,.08-1.01-.46-.84Z"/><path class="m" d="M393.87,143.43c-.49,.05-.41,.82,.08,.76,.49-.05,.41-.82-.08-.76Z"/></g><g><path class="u" d="M413.49,128.28c-1.75-.57-3.98-.18-4.84,1.57-1.04,2.13,.45,4.48,2.62,5.02,3.66,.91,6.81-4.09,3.04-6.23-.25-.14-.53-.26-.81-.36Z"/><g><path class="o" d="M412.16,133.61c-.18,0-.36-.02-.54-.07-.69-.17-1.28-.66-1.58-1.29-.27-.57-.26-1.2,.01-1.76,.34-.7,1.09-1.11,1.99-1.11,.31,0,.62,.05,.91,.14,.17,.06,.33,.13,.48,.21,.84,.48,1.2,1.27,.98,2.13-.26,.99-1.23,1.74-2.25,1.74h0Z"/><path class="m" d="M412.05,129.63c.28,0,.57,.05,.84,.13,.15,.05,.3,.12,.44,.19,1.87,1.06,.59,3.42-1.16,3.42-.16,0-.32-.02-.48-.06-1.17-.29-1.97-1.56-1.41-2.71,.33-.68,1.05-.98,1.78-.98m0-.48c-1,0-1.82,.47-2.21,1.25-.31,.63-.31,1.32-.01,1.96,.33,.7,.98,1.23,1.74,1.42,.2,.05,.4,.07,.59,.07,1.13,0,2.2-.83,2.49-1.92,.26-.97-.15-1.87-1.09-2.4-.16-.09-.34-.17-.53-.23-.31-.1-.65-.16-.99-.16h0Z"/></g><path class="m" d="M411.61,130c-.81,.3-1.26,1.51-.54,2.12,.34,.29,.78-.01,.86-.38,.07-.32-.08-.65,.19-.92,.38-.39,.03-1.03-.51-.82Z"/><path class="m" d="M412.56,132.13c-.5,.08-.38,.85,.12,.77,.5-.08,.38-.85-.12-.77Z"/></g><g><path class="u" d="M425.7,114.64c-1.8-.38-3.98,.26-4.64,2.09-.8,2.23,.94,4.41,3.15,4.71,3.74,.51,6.32-4.81,2.34-6.53-.27-.12-.55-.2-.85-.27Z"/><g><path class="o" d="M424.72,120.09c-.1,0-.2,0-.3-.02-.7-.1-1.34-.51-1.71-1.11-.33-.54-.39-1.15-.18-1.74,.35-.99,1.35-1.34,2.17-1.34,.2,0,.4,.02,.6,.06,.17,.04,.34,.09,.5,.16,.93,.4,1.37,1.19,1.18,2.11-.19,.91-1.04,1.87-2.26,1.87h0Z"/><path class="m" d="M424.71,116.13c.19,0,.37,.02,.55,.06,.16,.03,.31,.08,.45,.14,2.04,.88,.87,3.52-.99,3.52-.09,0-.18,0-.27-.02-1.19-.16-2.12-1.33-1.69-2.53,.29-.8,1.12-1.18,1.94-1.18m0-.48c-1.15,0-2.06,.57-2.4,1.5-.24,.65-.16,1.34,.2,1.94,.4,.66,1.1,1.12,1.88,1.22,.11,.02,.22,.02,.33,.02,1.18,0,2.25-.89,2.5-2.06,.21-1.03-.29-1.94-1.32-2.38-.17-.07-.36-.13-.55-.17-.21-.04-.43-.07-.65-.07h0Z"/></g><path class="m" d="M424.02,116.56c-.76,.38-1.08,1.63-.3,2.16,.37,.25,.77-.1,.81-.47,.03-.33-.15-.63,.08-.93,.33-.43-.08-1.02-.59-.76Z"/><path class="m" d="M425.2,118.57c-.48,.13-.28,.88,.2,.75,.48-.13,.28-.88-.2-.75Z"/></g><path class="n" d="M410.16,94.77c-3.51-9.77-13.82-16.44-22.65-20.73-3.04-1.48-7.04,2.56-3.98,5.05,3.52,2.86,6.63,6.39,9.87,9.59,3.25,3.21,5.7,7.5,9.18,10.39,3.07,2.55,9.26,.39,7.57-4.3Z"/><path class="n" d="M413,104.23c-6.04-.06-6.15,9.32-.1,9.38,6.04,.06,6.15-9.32,.1-9.38Z"/><path class="n" d="M330.23,86.42c-6.51-.07-6.63,10.05-.11,10.12,6.51,.07,6.63-10.05,.11-10.12Z"/><path class="n" d="M332.19,136c-.63-4.38-1.54-8.42-1.37-12.9,.19-4.89,.48-9.78,.49-14.67,0-4.85-7.53-6.25-8.66-1.27-1.65,7.26-2.47,15.83-.59,23.14,.58,2.25,5.32,11.51,8.78,8.91,1.14-.86,1.55-1.81,1.35-3.22Z"/><path class="y" d="M375.09,203.86c50.41-18.92,99.62-46.59,125.82-75.09,33.09-35.99,21.31-49.34,21.31-49.34,0,0,1.3,27.83-62.81,73.2-46.09,32.61-93.05,49.42-139.08,58.96-45.5,9.43-62.37,1.58-62.37,1.58,0,0,14.4,29.25,117.13-9.31Z"/><path class="m" d="M261.02,227.59c-.75,0-.76,1.15-.01,1.16,.75,0,.76-1.15,.01-1.16Z"/><path class="m" d="M274.96,231.8c-.97-.01-.99,1.5-.02,1.51,.97,.01,.99-1.5,.02-1.51Z"/><path class="m" d="M288.36,232.5c-1-.01-1.02,1.54-.02,1.55,1,.01,1.02-1.54,.02-1.55Z"/><path class="m" d="M304.13,231.55l-.17-.02c-.98-.1-1,1.6-.02,1.52h.17c.96-.09,.97-1.41,.02-1.5Z"/><path class="m" d="M322.36,228.81c-.34,.21-.49,.69-.14,1.11l.04,.04c.16,.19,.5,.28,.73,.2l.05-.02c.24-.08,.48-.26,.54-.53l.02-.08c.14-.69-.67-1.29-1.23-.74Z"/><path class="m" d="M342.21,223.46c-.96-.01-.98,1.49-.02,1.5,.96,.01,.98-1.49,.02-1.5Z"/><g><path class="m" d="M359.29,218.23h0s0-.02,0-.03v.03Z"/><path class="m" d="M359.29,218.23c-.19,.36-.03,.91,.41,1,.35,.07,.61,.02,.86-.23,.86-.84-.81-1.99-1.27-.76Z"/></g><path class="m" d="M377.52,213.18c-.02-.54-.73-.94-1.13-.48l-.11,.12c-.34,.38-.27,.98,.22,1.19,.46,.2,1.04-.13,1.02-.66v-.17Z"/><path class="m" d="M393.18,205.87c-.06,.02-.12,.04-.18,.06-.56,.19-.81,1.05-.19,1.37,.26,.13,.5,.19,.78,.09,.94-.34,.57-1.84-.4-1.52Z"/><path class="m" d="M409.52,198.86c-.95-.01-.97,1.47-.02,1.48,.95,.01,.97-1.47,.02-1.48Z"/><path class="m" d="M425.76,191.22c-.98-.01-1,1.51-.02,1.52,.98,.01,1-1.51,.02-1.52Z"/><path class="m" d="M440.99,183.04l-.09,.02c-.47,.08-.59,.64-.42,1.01l.05,.1c.27,.57,1.14,.46,1.37-.08,.25-.61-.28-1.15-.9-1.05Z"/><path class="m" d="M456.19,174.23c-.98-.01-1,1.52-.02,1.53,.98,.01,1-1.52,.02-1.53Z"/><path class="m" d="M470.61,164.93c-.14-.45-.69-.62-1.04-.29-.17,.17-.25,.33-.34,.55-.33,.89,1.25,1.31,1.39,.4,.04-.24,.06-.43-.01-.66Z"/><path class="m" d="M483.11,154.72c-.95,0-.96,1.46-.02,1.47,.94,.01,.96-1.46,.02-1.47Z"/><path class="m" d="M495.93,145.15c-1.04-.01-1.06,1.6-.02,1.61,1.04,.01,1.06-1.6,.02-1.61Z"/><path class="m" d="M506.01,135.22c-.98-.01-1,1.52-.02,1.53,.98,.01,1-1.52,.02-1.53Z"/><path class="m" d="M515.04,125.96c-.93,0-.94,1.43-.02,1.44,.93,0,.94-1.43,.02-1.44Z"/><path class="m" d="M523.41,115.45c-.99-.01-1.01,1.53-.02,1.54,.99,.01,1.01-1.53,.02-1.54Z"/><path class="m" d="M529.14,104.09c-.94,0-.95,1.44-.02,1.45,.94,0,.95-1.44,.02-1.45Z"/><path class="m" d="M530.88,91.12c-.99-.01-1.01,1.53-.02,1.54,.99,.01,1.01-1.53,.02-1.54Z"/></g></g></g><g id="g"/></g></svg>